<?xml version="1.0" standalone="no"?>
<!DOCTYPE svg PUBLIC "-//W3C//DTD SVG 20010904//EN"
 "http://www.w3.org/TR/2001/REC-SVG-20010904/DTD/svg10.dtd">
<svg version="1.0" xmlns="http://www.w3.org/2000/svg"
 width="48.000000pt" height="48.000000pt" viewBox="0 0 48.000000 48.000000"
 preserveAspectRatio="xMidYMid meet">
<metadata>
Created by potrace 1.13, written by Peter Selinger 2001-2015
</metadata>
<g transform="translate(0.000000,48.000000) scale(0.100000,-0.100000)"
fill="#000000" stroke="none">
<path d="M253 352 l-153 -45 0 -69 c0 -37 4 -68 9 -68 5 0 12 -16 15 -35 8
-40 32 -57 84 -58 25 -1 40 5 53 22 l18 22 69 -20 c38 -12 74 -21 81 -21 8 0
11 47 11 160 0 146 -2 160 -17 159 -10 -1 -87 -22 -170 -47z m-44 -211 c7 -5
9 -11 4 -14 -6 -4 -19 0 -29 8 -15 11 -16 14 -4 15 8 0 21 -4 29 -9z"/>
<path d="M40 240 c0 -53 2 -60 20 -60 18 0 20 7 20 60 0 53 -2 60 -20 60 -18
0 -20 -7 -20 -60z"/>
</g>
</svg>
