<?xml version="1.0" encoding="UTF-8" standalone="no"?>
<svg
   xmlns:dc="http://purl.org/dc/elements/1.1/"
   xmlns:cc="http://creativecommons.org/ns#"
   xmlns:rdf="http://www.w3.org/1999/02/22-rdf-syntax-ns#"
   xmlns:svg="http://www.w3.org/2000/svg"
   xmlns="http://www.w3.org/2000/svg"
   xmlns:sodipodi="http://sodipodi.sourceforge.net/DTD/sodipodi-0.dtd"
   xmlns:inkscape="http://www.inkscape.org/namespaces/inkscape"
   version="1.0"
   width="48.000000pt"
   height="48.000000pt"
   viewBox="0 0 48.000000 48.000000"
   preserveAspectRatio="xMidYMid meet"
   id="svg2"
   inkscape:version="0.48.4 r9939"
   sodipodi:docname="ic_currency_exchange.svg">
  <defs
     id="defs16" />
  <sodipodi:namedview
     pagecolor="#ffffff"
     bordercolor="#666666"
     borderopacity="1"
     objecttolerance="10"
     gridtolerance="10"
     guidetolerance="10"
     inkscape:pageopacity="0"
     inkscape:pageshadow="2"
     inkscape:window-width="640"
     inkscape:window-height="480"
     id="namedview14"
     showgrid="false"
     inkscape:zoom="3.9333333"
     inkscape:cx="30"
     inkscape:cy="30"
     inkscape:window-x="210"
     inkscape:window-y="127"
     inkscape:window-maximized="0"
     inkscape:current-layer="svg2" />
  <metadata
     id="metadata4">
Created by potrace 1.13, written by Peter Selinger 2001-2015
<rdf:RDF>
  <cc:Work
     rdf:about="">
    <dc:format>image/svg+xml</dc:format>
    <dc:type
       rdf:resource="http://purl.org/dc/dcmitype/StillImage" />
  </cc:Work>
</rdf:RDF>
</metadata>
  <g
     transform="matrix(0.11329215,0,0,-0.11326712,-3.1590977,51.364111)"
     id="g6"
     style="fill:#000000;stroke:none">
    <path
       d="M 155,426 C 115,409 71,363 54,323 39,288 36,198 49,165 c 7,-17 10,-15 33,20 29,46 48,82 48,89 0,2 -9,6 -20,8 -20,3 -20,3 0,36 45,74 143,95 215,46 34,-22 40,-24 53,-10 53,53 -130,113 -223,72 z"
       id="path8"
       inkscape:connector-curvature="0" />
    <path
       d="m 220,340 c 0,-13 -7,-20 -20,-20 -17,0 -20,-7 -20,-50 l 0,-50 40,0 c 22,0 40,-4 40,-10 0,-5 -18,-10 -40,-10 -33,0 -40,-3 -40,-20 0,-13 7,-20 20,-20 13,0 20,-7 20,-20 0,-13 7,-20 20,-20 13,0 20,7 20,20 0,13 7,20 20,20 17,0 20,7 20,50 l 0,50 -40,0 c -22,0 -40,5 -40,10 0,6 18,10 40,10 33,0 40,3 40,20 0,13 -7,20 -20,20 -13,0 -20,7 -20,20 0,13 -7,20 -20,20 -13,0 -20,-7 -20,-20 z"
       id="path10"
       inkscape:connector-curvature="0" />
    <path
       d="m 398,295 c -29,-46 -48,-82 -48,-89 0,-2 9,-6 20,-8 20,-3 20,-3 0,-36 -45,-74 -143,-95 -215,-46 -34,22 -40,24 -53,10 -22,-21 -9,-41 43,-66 37,-18 59,-21 109,-18 111,7 177,73 184,182 2,33 -1,72 -6,86 -9,24 -9,24 -34,-15 z"
       id="path12"
       inkscape:connector-curvature="0" />
  </g>
</svg>
