<?xml version="1.0" standalone="no"?>
<!DOCTYPE svg PUBLIC "-//W3C//DTD SVG 20010904//EN"
 "http://www.w3.org/TR/2001/REC-SVG-20010904/DTD/svg10.dtd">
<svg version="1.0" xmlns="http://www.w3.org/2000/svg"
 width="48.000000pt" height="48.000000pt" viewBox="0 0 48.000000 48.000000"
 preserveAspectRatio="xMidYMid meet">
<metadata>
Created by potrace 1.13, written by Peter Selinger 2001-2015
</metadata>
<g transform="translate(0.000000,48.000000) scale(0.100000,-0.100000)"
fill="#000000" stroke="none">
<path d="M155 426 c-40 -17 -84 -63 -101 -103 -15 -35 -18 -125 -5 -158 7 -17
10 -15 33 20 29 46 48 82 48 89 0 2 -9 6 -20 8 -20 3 -20 3 0 36 45 74 143 95
215 46 34 -22 40 -24 53 -10 53 53 -130 113 -223 72z"/>
<path d="M220 340 c0 -13 -7 -20 -20 -20 -17 0 -20 -7 -20 -50 l0 -50 40 0
c22 0 40 -4 40 -10 0 -5 -18 -10 -40 -10 -33 0 -40 -3 -40 -20 0 -13 7 -20 20
-20 13 0 20 -7 20 -20 0 -13 7 -20 20 -20 13 0 20 7 20 20 0 13 7 20 20 20 17
0 20 7 20 50 l0 50 -40 0 c-22 0 -40 5 -40 10 0 6 18 10 40 10 33 0 40 3 40
20 0 13 -7 20 -20 20 -13 0 -20 7 -20 20 0 13 -7 20 -20 20 -13 0 -20 -7 -20
-20z"/>
<path d="M398 295 c-29 -46 -48 -82 -48 -89 0 -2 9 -6 20 -8 20 -3 20 -3 0
-36 -45 -74 -143 -95 -215 -46 -34 22 -40 24 -53 10 -22 -21 -9 -41 43 -66 37
-18 59 -21 109 -18 111 7 177 73 184 182 2 33 -1 72 -6 86 -9 24 -9 24 -34
-15z"/>
</g>
</svg>
