<?xml version="1.0" standalone="no"?>
<!DOCTYPE svg PUBLIC "-//W3C//DTD SVG 20010904//EN"
 "http://www.w3.org/TR/2001/REC-SVG-20010904/DTD/svg10.dtd">
<svg version="1.0" xmlns="http://www.w3.org/2000/svg"
 width="48.000000pt" height="48.000000pt" viewBox="0 0 48.000000 48.000000"
 preserveAspectRatio="xMidYMid meet">
<metadata>
Created by potrace 1.13, written by Peter Selinger 2001-2015
</metadata>
<g transform="translate(0.000000,48.000000) scale(0.100000,-0.100000)"
fill="#000000" stroke="none">
<path d="M40 347 l0 -92 108 -108 c79 -79 114 -107 132 -107 35 0 160 125 160
160 0 19 -28 54 -108 133 l-107 107 -93 0 -92 0 0 -93z m90 23 c0 -13 -7 -20
-20 -20 -13 0 -20 7 -20 20 0 13 7 20 20 20 13 0 20 -7 20 -20z m100 -75 c-1
-5 -10 -9 -21 -7 -17 3 -20 -1 -17 -20 3 -21 7 -23 49 -20 53 3 75 -14 65 -52
-6 -24 -30 -36 -53 -29 -22 8 -14 23 10 20 16 -1 22 3 22 18 0 17 -7 20 -45
20 -59 1 -70 9 -67 49 2 29 5 33 30 32 15 -1 27 -5 27 -11z"/>
</g>
</svg>
