<?xml version="1.0" encoding="UTF-8" standalone="no"?>
<svg
   xmlns:dc="http://purl.org/dc/elements/1.1/"
   xmlns:cc="http://creativecommons.org/ns#"
   xmlns:rdf="http://www.w3.org/1999/02/22-rdf-syntax-ns#"
   xmlns:svg="http://www.w3.org/2000/svg"
   xmlns="http://www.w3.org/2000/svg"
   xmlns:sodipodi="http://sodipodi.sourceforge.net/DTD/sodipodi-0.dtd"
   xmlns:inkscape="http://www.inkscape.org/namespaces/inkscape"
   version="1.1"
   width="50"
   height="50"
   viewBox="0 0 50 50"
   id="svg2"
   inkscape:version="0.48.4 r9939"
   sodipodi:docname="ic_sale.svg">
  <metadata
     id="metadata10">
    <rdf:RDF>
      <cc:Work
         rdf:about="">
        <dc:format>image/svg+xml</dc:format>
        <dc:type
           rdf:resource="http://purl.org/dc/dcmitype/StillImage" />
      </cc:Work>
    </rdf:RDF>
  </metadata>
  <defs
     id="defs8" />
  <sodipodi:namedview
     pagecolor="#ffffff"
     bordercolor="#666666"
     borderopacity="1"
     objecttolerance="10"
     gridtolerance="10"
     guidetolerance="10"
     inkscape:pageopacity="0"
     inkscape:pageshadow="2"
     inkscape:window-width="1366"
     inkscape:window-height="744"
     id="namedview6"
     showgrid="false"
     inkscape:zoom="9.8333333"
     inkscape:cx="12"
     inkscape:cy="24.20339"
     inkscape:window-x="0"
     inkscape:window-y="24"
     inkscape:window-maximized="1"
     inkscape:current-layer="svg2" />
  <path
     d="m 39.696885,5.6711156 1.346581,8.2350854 7.748357,3.818861 -3.907291,7.467046 3.929366,7.467046 -7.814582,3.818861 L 39.652735,44.7131 31.065524,43.411701 24.950724,49.3 18.813848,43.326363 10.292863,44.691766 8.9242071,36.392677 1.22,32.595151 5.1493664,25.128105 1.2420751,17.725062 8.9904324,13.863532 10.337013,5.69245 18.880074,7.0578528 25.016949,1.0628814 31.13175,6.9725151 39.696885,5.6711156 M 19.498176,14.524899 a 3.3112638,3.2001627 0 0 0 -3.311264,3.200163 3.3112638,3.2001627 0 0 0 3.311264,3.200162 3.3112638,3.2001627 0 0 0 3.311264,-3.200162 3.3112638,3.2001627 0 0 0 -3.311264,-3.200163 m 11.037546,14.934092 a 3.3112638,3.2001627 0 0 0 -3.311264,3.200163 3.3112638,3.2001627 0 0 0 3.311264,3.200163 3.3112638,3.2001627 0 0 0 3.311264,-3.200163 3.3112638,3.2001627 0 0 0 -3.311264,-3.200163 m -13.443731,6.400326 18.962504,-18.326265 -3.112588,-3.008153 -18.962504,18.326265 3.112588,3.008153 z"
     id="path4"
     inkscape:connector-curvature="0" />
</svg>
