<?xml version="1.0" encoding="UTF-8" standalone="no"?>
<svg
   xmlns:dc="http://purl.org/dc/elements/1.1/"
   xmlns:cc="http://creativecommons.org/ns#"
   xmlns:rdf="http://www.w3.org/1999/02/22-rdf-syntax-ns#"
   xmlns:svg="http://www.w3.org/2000/svg"
   xmlns="http://www.w3.org/2000/svg"
   xmlns:sodipodi="http://sodipodi.sourceforge.net/DTD/sodipodi-0.dtd"
   xmlns:inkscape="http://www.inkscape.org/namespaces/inkscape"
   version="1.1"
   width="100"
   height="100"
   viewBox="0 0 100 100"
   id="svg2"
   inkscape:version="0.48.4 r9939"
   sodipodi:docname="taxi2.svg">
  <metadata
     id="metadata10">
    <rdf:RDF>
      <cc:Work
         rdf:about="">
        <dc:format>image/svg+xml</dc:format>
        <dc:type
           rdf:resource="http://purl.org/dc/dcmitype/StillImage" />
        <dc:title></dc:title>
      </cc:Work>
    </rdf:RDF>
  </metadata>
  <defs
     id="defs8" />
  <sodipodi:namedview
     pagecolor="#ffffff"
     bordercolor="#666666"
     borderopacity="1"
     objecttolerance="10"
     gridtolerance="10"
     guidetolerance="10"
     inkscape:pageopacity="0"
     inkscape:pageshadow="2"
     inkscape:window-width="1366"
     inkscape:window-height="744"
     id="namedview6"
     showgrid="false"
     inkscape:zoom="4.9166667"
     inkscape:cx="45.72546"
     inkscape:cy="46.760639"
     inkscape:window-x="0"
     inkscape:window-y="24"
     inkscape:window-maximized="1"
     inkscape:current-layer="svg2" />
  <path
     d="m 13.474576,44.627119 7.855932,-23.567797 h 57.61017 l 7.855932,23.567797 m -7.855932,26.18644 a 7.8559322,7.8559322 0 0 1 -7.855932,-7.855932 7.8559322,7.8559322 0 0 1 7.855932,-7.855932 7.8559322,7.8559322 0 0 1 7.855932,7.855932 7.8559322,7.8559322 0 0 1 -7.855932,7.855932 m -57.61017,0 a 7.8559322,7.8559322 0 0 1 -7.855932,-7.855932 7.8559322,7.8559322 0 0 1 7.855932,-7.855932 7.8559322,7.8559322 0 0 1 7.855933,7.855932 7.8559322,7.8559322 0 0 1 -7.855933,7.855932 M 86.377627,18.440678 C 85.330169,15.403051 82.397288,13.20339 78.940678,13.20339 H 65.847458 V 2.7288136 H 34.423729 V 13.20339 H 21.330508 c -3.45661,0 -6.389491,2.199661 -7.436949,5.237288 L 3,49.864407 V 91.762712 A 5.2372881,5.2372881 0 0 0 8.2372881,97 h 5.2372879 a 5.2372881,5.2372881 0 0 0 5.237288,-5.237288 v -5.237288 h 62.847458 v 5.237288 A 5.2372881,5.2372881 0 0 0 86.79661,97 h 5.237288 a 5.2372881,5.2372881 0 0 0 5.237288,-5.237288 V 49.864407 L 86.377627,18.440678 z"
     id="path4"
     inkscape:connector-curvature="0" />
</svg>
